<svg width="147" height="77" viewBox="0 0 147 77" fill="none" xmlns="http://www.w3.org/2000/svg">
<path d="M60.4406 50H51V0H78.2727C86.47 0.8792 89.2181 2.7073 90.8601 9.44056V19.2308V22.3776C90.0136 26.3101 88.0799 27.7111 82.4685 29.021V29.3706C87.8467 30.1351 89.8911 31.8074 91.2098 37.7622V50H90.8601H81.4196H81.0699V39.5105C80.8455 35.3745 79.2039 34.1157 75.1259 33.5664H60.4406V50Z" fill="#F15524"/>
<path d="M75.4755 25.1748H60.4406V8.3916H75.4755C79.4068 8.5853 80.9022 9.3863 81.7692 12.5874V19.5804C81.4643 23.6343 79.9536 24.7434 75.4755 25.1748Z" fill="#232323"/>
<path fill-rule="evenodd" clip-rule="evenodd" d="M0 50L16.1275 0H29.8009L46.9802 50H37.8647L34.3587 40.5594H12.9722L9.46617 50H0ZM31.9045 33.2168H14.7251L23.4901 7.69231L31.9045 33.2168Z" fill="#F15524"/>
<path d="M95 0V50H117.378H117.727L135.21 32.5175L134.86 48.2517L135.21 48.951L145 38.8112V16.4336H121.923L112.483 25.8741V26.2238H128.217L105.839 48.951H104.79L105.14 9.79021H135.21L144.65 0H95Z" fill="#F15524"/>
<path d="M6.33789 71H4.66797V58.1875H0.175781V56.7227H10.8105V58.1875H6.33789V71ZM17.5879 60.1016C17.8027 60.1016 18.0273 60.1146 18.2617 60.1406C18.4961 60.1602 18.7044 60.1895 18.8867 60.2285L18.6816 61.7324C18.5059 61.6868 18.3105 61.651 18.0957 61.625C17.8809 61.599 17.679 61.5859 17.4902 61.5859C17.0605 61.5859 16.6536 61.6738 16.2695 61.8496C15.8919 62.0189 15.5599 62.2663 15.2734 62.5918C14.987 62.9108 14.7624 63.2982 14.5996 63.7539C14.4368 64.2031 14.3555 64.7044 14.3555 65.2578V71H12.7246V60.2969H14.0723L14.248 62.2695H14.3164C14.5378 61.8724 14.8047 61.5111 15.1172 61.1855C15.4297 60.8535 15.791 60.5898 16.2012 60.3945C16.6178 60.1992 17.0801 60.1016 17.5879 60.1016ZM24.9121 60.1211C26.1882 60.1211 27.1354 60.4076 27.7539 60.9805C28.3724 61.5534 28.6816 62.4681 28.6816 63.7246V71H27.5L27.1875 69.418H27.1094C26.8099 69.8086 26.4974 70.1374 26.1719 70.4043C25.8464 70.6647 25.4688 70.8633 25.0391 71C24.6159 71.1302 24.0951 71.1953 23.4766 71.1953C22.8255 71.1953 22.2461 71.0814 21.7383 70.8535C21.237 70.6257 20.8398 70.2806 20.5469 69.8184C20.2604 69.3561 20.1172 68.7702 20.1172 68.0605C20.1172 66.9928 20.5404 66.1725 21.3867 65.5996C22.2331 65.0267 23.5221 64.7142 25.2539 64.6621L27.0996 64.584V63.9297C27.0996 63.0052 26.901 62.3574 26.5039 61.9863C26.1068 61.6152 25.5469 61.4297 24.8242 61.4297C24.2643 61.4297 23.7305 61.5111 23.2227 61.6738C22.7148 61.8366 22.2331 62.0286 21.7773 62.25L21.2793 61.0195C21.7611 60.7721 22.3145 60.5605 22.9395 60.3848C23.5645 60.209 24.222 60.1211 24.9121 60.1211ZM27.0801 65.7266L25.4492 65.7949C24.1146 65.847 23.1738 66.0651 22.627 66.4492C22.0801 66.8333 21.8066 67.377 21.8066 68.0801C21.8066 68.6921 21.9922 69.1445 22.3633 69.4375C22.7344 69.7305 23.2259 69.877 23.8379 69.877C24.7884 69.877 25.5664 69.6133 26.1719 69.0859C26.7773 68.5586 27.0801 67.7676 27.0801 66.7129V65.7266ZM35.8301 71.1953C34.4759 71.1953 33.4017 70.7331 32.6074 69.8086C31.8197 68.8841 31.4258 67.5104 31.4258 65.6875C31.4258 63.8451 31.8294 62.4551 32.6367 61.5176C33.444 60.5736 34.5182 60.1016 35.8594 60.1016C36.4258 60.1016 36.9206 60.1764 37.3438 60.3262C37.7669 60.4759 38.1315 60.6777 38.4375 60.9316C38.7435 61.179 39.0007 61.4622 39.209 61.7812H39.3262C39.3001 61.5794 39.2741 61.3027 39.248 60.9512C39.222 60.5996 39.209 60.3132 39.209 60.0918V55.8047H40.8301V71H39.5215L39.2773 69.4766H39.209C39.0072 69.7956 38.75 70.0853 38.4375 70.3457C38.1315 70.6061 37.7637 70.8145 37.334 70.9707C36.9108 71.1204 36.4095 71.1953 35.8301 71.1953ZM36.084 69.8477C37.2298 69.8477 38.0404 69.5221 38.5156 68.8711C38.9909 68.2201 39.2285 67.2533 39.2285 65.9707V65.6777C39.2285 64.3171 39.0007 63.2721 38.5449 62.543C38.0957 61.8138 37.2754 61.4492 36.084 61.4492C35.0879 61.4492 34.3424 61.8333 33.8477 62.6016C33.3529 63.3633 33.1055 64.4049 33.1055 65.7266C33.1055 67.0417 33.3496 68.0573 33.8379 68.7734C34.3327 69.4896 35.0814 69.8477 36.084 69.8477ZM45.8887 60.2969V71H44.2676V60.2969H45.8887ZM45.0977 56.293C45.3646 56.293 45.5924 56.3809 45.7812 56.5566C45.9766 56.7259 46.0742 56.9928 46.0742 57.3574C46.0742 57.7155 45.9766 57.9824 45.7812 58.1582C45.5924 58.334 45.3646 58.4219 45.0977 58.4219C44.8177 58.4219 44.5833 58.334 44.3945 58.1582C44.2122 57.9824 44.1211 57.7155 44.1211 57.3574C44.1211 56.9928 44.2122 56.7259 44.3945 56.5566C44.5833 56.3809 44.8177 56.293 45.0977 56.293ZM54.3945 60.1016C55.6641 60.1016 56.6243 60.4141 57.2754 61.0391C57.9264 61.6576 58.252 62.6536 58.252 64.0273V71H56.6504V64.1348C56.6504 63.2428 56.4453 62.5755 56.0352 62.1328C55.6315 61.6901 55.0098 61.4688 54.1699 61.4688C52.985 61.4688 52.1517 61.804 51.6699 62.4746C51.1882 63.1452 50.9473 64.1185 50.9473 65.3945V71H49.3262V60.2969H50.6348L50.8789 61.8398H50.9668C51.1947 61.4622 51.4844 61.1465 51.8359 60.8926C52.1875 60.6322 52.5814 60.4368 53.0176 60.3066C53.4538 60.1699 53.9128 60.1016 54.3945 60.1016ZM64.5801 75.8047C63.1738 75.8047 62.0898 75.541 61.3281 75.0137C60.5664 74.4928 60.1855 73.7604 60.1855 72.8164C60.1855 72.1458 60.3971 71.5729 60.8203 71.0977C61.25 70.6224 61.8424 70.3066 62.5977 70.1504C62.3177 70.0202 62.0768 69.8249 61.875 69.5645C61.6797 69.304 61.582 69.0046 61.582 68.666C61.582 68.2754 61.6895 67.9336 61.9043 67.6406C62.1257 67.3411 62.4609 67.0547 62.9102 66.7812C62.3503 66.5534 61.8945 66.1693 61.543 65.6289C61.1979 65.082 61.0254 64.4473 61.0254 63.7246C61.0254 62.9564 61.1849 62.3021 61.5039 61.7617C61.8229 61.2148 62.2852 60.7982 62.8906 60.5117C63.4961 60.2253 64.2285 60.082 65.0879 60.082C65.2767 60.082 65.4655 60.0918 65.6543 60.1113C65.8496 60.1243 66.0352 60.1471 66.2109 60.1797C66.3867 60.2057 66.5397 60.2383 66.6699 60.2773H70.3418V61.3223L68.3691 61.5664C68.5645 61.8203 68.7272 62.1263 68.8574 62.4844C68.9876 62.8424 69.0527 63.2396 69.0527 63.6758C69.0527 64.7435 68.6914 65.5931 67.9688 66.2246C67.2461 66.8496 66.2533 67.1621 64.9902 67.1621C64.6908 67.1621 64.3848 67.1361 64.0723 67.084C63.7533 67.2598 63.5091 67.4551 63.3398 67.6699C63.1771 67.8848 63.0957 68.1322 63.0957 68.4121C63.0957 68.6204 63.1576 68.7865 63.2812 68.9102C63.4115 69.0339 63.597 69.125 63.8379 69.1836C64.0788 69.2357 64.3685 69.2617 64.707 69.2617H66.5918C67.7572 69.2617 68.6491 69.5059 69.2676 69.9941C69.8926 70.4824 70.2051 71.1953 70.2051 72.1328C70.2051 73.3177 69.7233 74.2259 68.7598 74.8574C67.7962 75.4889 66.403 75.8047 64.5801 75.8047ZM64.6289 74.5352C65.5143 74.5352 66.2467 74.444 66.8262 74.2617C67.4121 74.0859 67.8483 73.8288 68.1348 73.4902C68.4277 73.1582 68.5742 72.7611 68.5742 72.2988C68.5742 71.8691 68.4766 71.5436 68.2812 71.3223C68.0859 71.1074 67.7995 70.9642 67.4219 70.8926C67.0443 70.8145 66.582 70.7754 66.0352 70.7754H64.1797C63.6979 70.7754 63.278 70.8503 62.9199 71C62.5618 71.1497 62.2852 71.3711 62.0898 71.6641C61.901 71.957 61.8066 72.3216 61.8066 72.7578C61.8066 73.3372 62.0508 73.7767 62.5391 74.0762C63.0273 74.3822 63.724 74.5352 64.6289 74.5352ZM65.0488 65.9805C65.8236 65.9805 66.4062 65.7852 66.7969 65.3945C67.1875 65.0039 67.3828 64.4342 67.3828 63.6855C67.3828 62.8848 67.1842 62.2858 66.7871 61.8887C66.39 61.485 65.804 61.2832 65.0293 61.2832C64.2871 61.2832 63.7142 61.4915 63.3105 61.9082C62.9134 62.3184 62.7148 62.9206 62.7148 63.7148C62.7148 64.444 62.9167 65.0039 63.3203 65.3945C63.724 65.7852 64.3001 65.9805 65.0488 65.9805ZM81.6504 60.1211C82.9264 60.1211 83.8737 60.4076 84.4922 60.9805C85.1107 61.5534 85.4199 62.4681 85.4199 63.7246V71H84.2383L83.9258 69.418H83.8477C83.5482 69.8086 83.2357 70.1374 82.9102 70.4043C82.5846 70.6647 82.207 70.8633 81.7773 71C81.3542 71.1302 80.8333 71.1953 80.2148 71.1953C79.5638 71.1953 78.9844 71.0814 78.4766 70.8535C77.9753 70.6257 77.5781 70.2806 77.2852 69.8184C76.9987 69.3561 76.8555 68.7702 76.8555 68.0605C76.8555 66.9928 77.2786 66.1725 78.125 65.5996C78.9714 65.0267 80.2604 64.7142 81.9922 64.6621L83.8379 64.584V63.9297C83.8379 63.0052 83.6393 62.3574 83.2422 61.9863C82.8451 61.6152 82.2852 61.4297 81.5625 61.4297C81.0026 61.4297 80.4688 61.5111 79.9609 61.6738C79.4531 61.8366 78.9714 62.0286 78.5156 62.25L78.0176 61.0195C78.4993 60.7721 79.0527 60.5605 79.6777 60.3848C80.3027 60.209 80.9603 60.1211 81.6504 60.1211ZM83.8184 65.7266L82.1875 65.7949C80.8529 65.847 79.9121 66.0651 79.3652 66.4492C78.8184 66.8333 78.5449 67.377 78.5449 68.0801C78.5449 68.6921 78.7305 69.1445 79.1016 69.4375C79.4727 69.7305 79.9642 69.877 80.5762 69.877C81.5267 69.877 82.3047 69.6133 82.9102 69.0859C83.5156 68.5586 83.8184 67.7676 83.8184 66.7129V65.7266ZM93.8281 60.1016C95.0977 60.1016 96.0579 60.4141 96.709 61.0391C97.36 61.6576 97.6855 62.6536 97.6855 64.0273V71H96.084V64.1348C96.084 63.2428 95.8789 62.5755 95.4688 62.1328C95.0651 61.6901 94.4434 61.4688 93.6035 61.4688C92.4186 61.4688 91.5853 61.804 91.1035 62.4746C90.6217 63.1452 90.3809 64.1185 90.3809 65.3945V71H88.7598V60.2969H90.0684L90.3125 61.8398H90.4004C90.6283 61.4622 90.918 61.1465 91.2695 60.8926C91.6211 60.6322 92.015 60.4368 92.4512 60.3066C92.8874 60.1699 93.3464 60.1016 93.8281 60.1016ZM104.834 71.1953C103.48 71.1953 102.406 70.7331 101.611 69.8086C100.824 68.8841 100.43 67.5104 100.43 65.6875C100.43 63.8451 100.833 62.4551 101.641 61.5176C102.448 60.5736 103.522 60.1016 104.863 60.1016C105.43 60.1016 105.924 60.1764 106.348 60.3262C106.771 60.4759 107.135 60.6777 107.441 60.9316C107.747 61.179 108.005 61.4622 108.213 61.7812H108.33C108.304 61.5794 108.278 61.3027 108.252 60.9512C108.226 60.5996 108.213 60.3132 108.213 60.0918V55.8047H109.834V71H108.525L108.281 69.4766H108.213C108.011 69.7956 107.754 70.0853 107.441 70.3457C107.135 70.6061 106.768 70.8145 106.338 70.9707C105.915 71.1204 105.413 71.1953 104.834 71.1953ZM105.088 69.8477C106.234 69.8477 107.044 69.5221 107.52 68.8711C107.995 68.2201 108.232 67.2533 108.232 65.9707V65.6777C108.232 64.3171 108.005 63.2721 107.549 62.543C107.1 61.8138 106.279 61.4492 105.088 61.4492C104.092 61.4492 103.346 61.8333 102.852 62.6016C102.357 63.3633 102.109 64.4049 102.109 65.7266C102.109 67.0417 102.354 68.0573 102.842 68.7734C103.337 69.4896 104.085 69.8477 105.088 69.8477ZM124.814 57.9824C124.027 57.9824 123.317 58.1191 122.686 58.3926C122.061 58.6595 121.527 59.0501 121.084 59.5645C120.648 60.0723 120.312 60.6875 120.078 61.4102C119.844 62.1328 119.727 62.9466 119.727 63.8516C119.727 65.0495 119.912 66.0911 120.283 66.9766C120.661 67.8555 121.221 68.5358 121.963 69.0176C122.712 69.4993 123.646 69.7402 124.766 69.7402C125.404 69.7402 126.003 69.6882 126.562 69.584C127.129 69.4733 127.679 69.3366 128.213 69.1738V70.6191C127.692 70.8145 127.145 70.9577 126.572 71.0488C125.999 71.1465 125.319 71.1953 124.531 71.1953C123.079 71.1953 121.865 70.8958 120.889 70.2969C119.919 69.6914 119.189 68.8385 118.701 67.7383C118.219 66.638 117.979 65.3392 117.979 63.8418C117.979 62.7611 118.128 61.7747 118.428 60.8828C118.734 59.9844 119.176 59.2096 119.756 58.5586C120.342 57.9076 121.058 57.4062 121.904 57.0547C122.757 56.6966 123.734 56.5176 124.834 56.5176C125.557 56.5176 126.253 56.5892 126.924 56.7324C127.594 56.8757 128.2 57.0807 128.74 57.3477L128.076 58.7539C127.62 58.5456 127.119 58.3665 126.572 58.2168C126.032 58.0605 125.446 57.9824 124.814 57.9824ZM140.293 65.6289C140.293 66.5078 140.179 67.2923 139.951 67.9824C139.723 68.6725 139.395 69.2552 138.965 69.7305C138.535 70.2057 138.014 70.5703 137.402 70.8242C136.797 71.0716 136.11 71.1953 135.342 71.1953C134.626 71.1953 133.968 71.0716 133.369 70.8242C132.777 70.5703 132.262 70.2057 131.826 69.7305C131.396 69.2552 131.061 68.6725 130.82 67.9824C130.586 67.2923 130.469 66.5078 130.469 65.6289C130.469 64.457 130.667 63.4609 131.064 62.6406C131.462 61.8138 132.028 61.1855 132.764 60.7559C133.506 60.3197 134.388 60.1016 135.41 60.1016C136.387 60.1016 137.24 60.3197 137.969 60.7559C138.704 61.1921 139.274 61.8236 139.678 62.6504C140.088 63.4707 140.293 64.4635 140.293 65.6289ZM132.148 65.6289C132.148 66.4883 132.262 67.2337 132.49 67.8652C132.718 68.4967 133.07 68.985 133.545 69.3301C134.02 69.6751 134.632 69.8477 135.381 69.8477C136.123 69.8477 136.732 69.6751 137.207 69.3301C137.689 68.985 138.044 68.4967 138.271 67.8652C138.499 67.2337 138.613 66.4883 138.613 65.6289C138.613 64.776 138.499 64.0404 138.271 63.4219C138.044 62.7969 137.692 62.3151 137.217 61.9766C136.742 61.638 136.126 61.4688 135.371 61.4688C134.258 61.4688 133.441 61.8366 132.92 62.5723C132.406 63.3079 132.148 64.3268 132.148 65.6289ZM142.852 69.9844C142.852 69.5286 142.962 69.2064 143.184 69.0176C143.405 68.8223 143.675 68.7246 143.994 68.7246C144.326 68.7246 144.606 68.8223 144.834 69.0176C145.062 69.2064 145.176 69.5286 145.176 69.9844C145.176 70.4336 145.062 70.7624 144.834 70.9707C144.606 71.1725 144.326 71.2734 143.994 71.2734C143.675 71.2734 143.405 71.1725 143.184 70.9707C142.962 70.7624 142.852 70.4336 142.852 69.9844Z" fill="white"/>
</svg>
